<?xml version="1.0" standalone="no"?>
<!DOCTYPE svg PUBLIC "-//W3C//DTD SVG 20010904//EN"
 "http://www.w3.org/TR/2001/REC-SVG-20010904/DTD/svg10.dtd">
<svg version="1.0" xmlns="http://www.w3.org/2000/svg"
 width="890.000000pt" height="256.000000pt" viewBox="0 0 890.000000 256.000000"
 preserveAspectRatio="xMidYMid meet">

<g transform="translate(0.000000,256.000000) scale(0.100000,-0.100000)"
fill="#000000" stroke="none">
<path d="M1735 2356 c-22 -6 -110 -13 -195 -15 -113 -2 -160 -7 -174 -17 -11
-8 -28 -14 -36 -14 -9 0 -26 -10 -37 -22 -24 -28 -73 -112 -73 -127 0 -6 -16
-34 -36 -63 -44 -63 -91 -172 -109 -253 -7 -33 -23 -77 -35 -97 -18 -32 -22
-55 -25 -179 -2 -78 0 -151 5 -163 35 -91 44 -106 65 -106 28 0 43 -17 71 -83
12 -29 36 -84 54 -123 39 -86 36 -117 -13 -138 -17 -8 -95 -39 -172 -68 -167
-65 -177 -79 -77 -114 34 -12 72 -30 83 -40 29 -26 57 -84 70 -144 8 -39 16
-51 34 -56 36 -9 76 -58 120 -147 38 -78 44 -85 125 -141 93 -64 157 -93 174
-76 14 14 26 12 26 -5 0 -33 28 -14 35 24 7 43 -4 71 -95 236 -88 159 -86 141
-23 202 29 29 56 53 59 53 3 0 19 -14 35 -32 37 -38 55 -27 45 27 -6 32 -10
36 -29 31 -12 -3 -32 -6 -44 -6 -13 0 -31 -8 -41 -18 -9 -9 -36 -32 -59 -50
l-42 -33 -15 23 c-9 12 -16 28 -16 35 0 7 -4 21 -10 31 -12 21 -50 141 -50
157 0 20 27 37 48 31 11 -4 31 -17 44 -29 53 -49 100 -79 145 -92 57 -18 63
-18 63 -5 0 6 -7 10 -15 10 -8 0 -26 5 -40 12 -29 13 -26 41 9 69 l21 17 -24
25 c-22 25 -22 47 1 47 6 0 26 11 44 25 18 14 40 25 49 25 25 0 195 94 203
112 6 13 29 9 42 -7 32 -38 -84 -199 -200 -278 -25 -16 -47 -31 -49 -33 -1 -1
0 -7 4 -13 9 -15 94 30 134 71 52 52 110 139 129 190 9 27 20 48 23 48 7 0 13
-32 25 -139 4 -30 1 -77 -6 -110 -34 -160 -44 -197 -53 -203 -6 -3 -37 12 -70
35 -33 23 -67 47 -76 53 -9 7 -36 14 -61 18 -41 5 -43 5 -26 -9 11 -8 26 -15
33 -15 19 0 33 -33 22 -53 -12 -20 -8 -21 24 -6 19 9 32 7 65 -10 81 -41 101
-103 51 -157 -18 -19 -19 -25 -8 -43 11 -16 11 -27 0 -56 -7 -19 -9 -44 -6
-55 3 -11 2 -20 -2 -20 -9 0 -39 -99 -32 -103 2 -2 21 -10 42 -20 38 -17 38
-17 73 10 22 16 49 27 72 28 31 1 37 5 38 23 1 12 6 48 12 80 6 31 16 85 22
119 6 33 22 90 36 124 20 48 25 76 22 110 -5 45 -4 47 24 53 19 4 38 0 51 -9
12 -8 28 -15 35 -15 16 0 82 -45 137 -94 42 -37 70 -43 70 -14 0 24 -120 125
-190 158 -71 35 -269 227 -281 273 -9 40 18 67 70 67 108 1 199 53 251 145 40
71 52 124 35 155 -10 18 -7 32 14 80 23 50 25 64 17 100 -5 23 -19 52 -30 64
-12 12 -21 28 -21 34 0 7 -6 12 -12 12 -9 0 -9 3 -2 8 20 14 24 43 9 78 -8 19
-19 34 -25 34 -7 0 -8 -6 0 -19 18 -34 13 -71 -10 -71 -11 0 -20 5 -20 10 0
11 -44 32 -70 34 -8 1 -23 -2 -33 -7 -15 -7 -17 -4 -11 17 9 36 0 33 -42 -14
-24 -26 -45 -40 -61 -40 -15 0 -23 -5 -21 -12 3 -9 37 -15 94 -20 181 -14 215
-29 230 -106 8 -43 -11 -107 -37 -126 -20 -14 -20 -16 -5 -37 28 -40 17 -87
-42 -184 -22 -36 -85 -82 -129 -94 -49 -14 -43 11 7 34 37 17 53 35 30 35 -18
0 -11 25 11 40 12 8 31 23 43 33 21 17 21 17 -6 11 -28 -6 -28 -6 -13 22 13
26 13 30 -7 51 -13 14 -33 23 -51 23 -24 0 -28 3 -22 18 4 9 9 26 12 37 4 19
3 18 -15 -2 -25 -28 -36 -30 -22 -4 24 45 2 42 -28 -5 -12 -19 -27 -32 -33
-28 -6 4 -4 13 8 26 17 19 17 19 -9 13 -14 -4 -29 -2 -32 4 -4 6 4 13 19 17
43 11 27 23 -23 17 -41 -5 -52 -2 -76 19 -24 21 -27 29 -21 57 4 18 12 31 18
28 7 -2 28 -9 47 -15 19 -6 64 -20 100 -31 36 -12 72 -21 81 -21 21 0 74 -27
89 -45 29 -35 80 -5 80 46 0 16 -7 45 -15 65 l-14 35 -30 -32 c-23 -23 -34
-29 -43 -21 -14 11 -21 12 -130 13 -56 1 -66 4 -61 17 5 12 2 14 -13 8 -22 -9
-23 -9 -45 -7 -21 1 -79 55 -79 72 0 7 10 3 24 -10 24 -23 81 -41 104 -34 24
9 11 34 -25 49 -73 29 -83 36 -83 63 1 25 2 24 15 -7 8 -19 19 -31 25 -27 8 5
7 11 -1 21 -15 18 -3 32 13 16 7 -7 21 -12 32 -12 16 0 13 6 -17 33 -46 40
-59 86 -28 94 26 7 26 14 0 47 -21 27 -11 38 11 11 10 -12 16 -13 27 -4 8 7
12 18 9 25 -3 9 6 11 33 7 34 -5 40 -2 61 26 27 40 16 56 -13 20 -19 -23 -26
-25 -44 -16 -23 10 -31 27 -13 27 6 0 19 9 30 20 11 11 27 20 35 20 19 0 20
37 1 80 -8 20 -16 28 -20 21 -4 -6 -5 -15 -2 -19 3 -5 -4 -23 -14 -40 -22 -35
-17 -41 12 -15 10 9 18 11 18 5 0 -15 -40 -42 -62 -42 -10 0 -18 5 -18 11 0 5
-16 17 -35 25 -46 19 -44 26 4 18 54 -9 60 10 8 31 -23 10 -36 20 -29 22 28
10 9 22 -28 18 -35 -5 -40 -3 -40 14 0 11 8 22 18 24 13 4 13 5 -4 6 -12 0
-35 -6 -50 -14 -16 -8 -40 -15 -54 -15 -23 1 -21 3 15 25 22 14 47 25 55 25 8
0 22 5 30 10 13 9 13 11 0 20 -23 15 -59 12 -91 -7 -26 -16 -31 -16 -39 -3 -8
13 -13 13 -30 2 -19 -11 -21 -11 -18 5 2 11 -2 17 -10 15 -10 -2 -12 4 -7 20
5 21 3 20 -21 -7 -24 -28 -26 -24 -7 22 12 31 -17 3 -36 -36 -20 -39 -65 -61
-125 -61 -23 0 -26 3 -20 25 7 28 -19 46 -39 26 -6 -6 -22 -11 -35 -11 -19 0
-23 -4 -17 -17 4 -12 3 -15 -4 -8 -19 20 -23 62 -6 78 26 26 73 34 202 31 70
-2 125 1 128 7 4 5 17 9 31 9 23 0 54 20 54 34 0 10 -42 6 -85 -8z m-375 -96
c-6 -12 -9 -33 -5 -47 4 -18 2 -24 -7 -21 -21 7 -22 70 -2 85 23 17 28 10 14
-17z m-53 -52 c-3 -8 -6 -5 -6 6 -1 11 2 17 5 13 3 -3 4 -12 1 -19z m164 -53
c45 -5 69 -3 73 4 8 12 142 16 170 5 9 -3 16 -12 16 -20 0 -9 12 -14 36 -14
75 0 167 -92 149 -149 -2 -9 -1 -29 3 -46 5 -16 5 -50 0 -75 -7 -40 -12 -65
-34 -160 -7 -32 -7 -65 2 -112 4 -25 2 -38 -5 -38 -6 0 -11 -13 -11 -30 0 -16
4 -30 9 -30 9 0 91 -78 91 -87 0 -2 -13 4 -30 13 -16 10 -32 16 -34 13 -3 -3
-1 -46 5 -96 10 -84 9 -93 -11 -141 -24 -54 -117 -152 -145 -152 -9 0 -35 -11
-58 -24 -47 -27 -145 -54 -227 -62 -72 -8 -130 17 -187 79 -37 40 -44 53 -43
82 1 9 -32 69 -46 85 -12 15 -34 88 -36 120 0 8 -8 23 -16 33 -12 13 -16 40
-17 94 l0 76 32 9 c40 10 51 27 30 43 -24 17 -21 26 7 19 15 -3 29 1 40 11 21
21 51 12 41 -13 -4 -9 -15 -37 -23 -62 -9 -25 -26 -67 -39 -94 -13 -28 -23
-55 -23 -61 0 -7 14 -31 30 -54 17 -23 28 -46 25 -51 -3 -5 1 -23 10 -41 15
-29 15 -32 -2 -45 -16 -12 -16 -15 -3 -24 16 -12 192 -4 243 11 18 5 37 4 48
-2 16 -8 19 -6 19 10 0 25 -45 39 -71 22 -11 -6 -59 -11 -109 -11 -89 0 -91 0
-101 27 -7 20 -6 28 3 35 20 12 26 10 30 -14 2 -12 9 -23 17 -26 11 -4 12 3 7
32 -10 54 7 79 49 72 23 -5 38 -2 49 9 9 9 16 18 16 20 0 4 -26 5 -104 5 -78
0 -126 17 -126 46 0 12 6 27 14 34 8 6 25 42 36 78 12 37 28 81 36 99 16 35
19 153 4 153 -5 0 -10 -6 -10 -14 0 -10 -19 -12 -87 -10 l-88 2 -3 37 c-5 57
15 130 59 221 54 110 69 128 121 143 24 7 50 17 58 21 8 5 22 7 30 5 8 -2 45
-7 81 -10z m-222 -474 c9 -6 11 -16 6 -27 -5 -13 -9 -15 -12 -6 -6 15 -47 16
-74 2 -27 -15 -24 4 4 23 25 18 55 21 76 8z m-119 -21 c0 -5 -4 -10 -10 -10
-5 0 -10 5 -10 10 0 6 5 10 10 10 6 0 10 -4 10 -10z m-80 -26 c0 -8 -4 -12
-10 -9 -5 3 -10 10 -10 16 0 5 5 9 10 9 6 0 10 -7 10 -16z m919 -303 c19 -12
6 -41 -19 -41 -21 0 -24 8 -14 34 7 18 13 19 33 7z m-605 -693 c30 -62 70
-139 89 -170 23 -37 33 -65 30 -80 -3 -14 2 -42 11 -63 18 -42 21 -75 7 -75
-5 0 -12 10 -16 23 -3 12 -11 40 -16 62 -26 97 -37 111 -115 151 l-74 38 0
113 c0 91 3 113 14 113 8 0 38 -48 70 -112z"/>
<path d="M1416 1723 c-30 -16 -32 -25 -11 -43 8 -7 15 -18 15 -24 0 -6 9 -22
18 -34 22 -28 85 -36 118 -16 18 11 25 10 43 -2 12 -9 36 -14 54 -12 l32 3
-40 21 c-27 15 -51 20 -74 16 -23 -3 -32 -1 -27 6 4 6 13 9 21 5 8 -3 15 0 15
6 0 6 -17 11 -37 11 -21 0 -45 4 -53 10 -27 17 39 32 108 26 64 -7 79 2 40 22
-36 17 -192 21 -222 5z"/>
<path d="M1481 1555 c19 -20 73 -35 88 -25 19 11 -33 40 -71 40 -29 0 -31 -2
-17 -15z"/>
<path d="M1420 1417 c0 -2 24 -29 54 -60 30 -31 59 -72 66 -91 11 -35 30 -49
30 -23 0 24 -59 114 -95 145 -31 28 -55 40 -55 29z"/>
<path d="M1276 1133 c-3 -3 -1 -12 4 -19 6 -6 9 -16 8 -22 -4 -13 3 -15 24 -7
9 4 30 -1 47 -9 37 -20 63 -21 39 -2 -10 7 -18 18 -18 25 0 6 8 11 18 11 9 0
24 5 32 10 11 8 -5 10 -55 8 -39 -1 -75 1 -81 5 -6 3 -14 4 -18 0z"/>
<path d="M2056 2212 c5 -4 22 -18 38 -32 28 -24 28 -24 17 -3 -6 13 -20 27
-31 33 -22 12 -38 13 -24 2z"/>
<path d="M2130 2132 c0 -5 4 -12 9 -17 14 -15 51 -117 51 -142 0 -28 18 -40
27 -17 10 28 -47 168 -74 178 -7 3 -13 2 -13 -2z"/>
<path d="M3073 2043 l-33 -4 0 -270 0 -269 35 0 35 0 0 113 0 112 69 1 c119 2
191 58 199 156 8 102 -62 160 -197 164 -42 1 -91 0 -108 -3z m159 -53 c49 -14
78 -52 78 -102 0 -32 -7 -47 -34 -74 -32 -32 -38 -34 -100 -34 l-66 0 0 104
c0 91 2 105 18 109 31 8 66 7 104 -3z"/>
<path d="M4556 2034 c-9 -8 -16 -22 -16 -29 0 -18 27 -45 45 -45 18 0 45 27
45 45 0 18 -27 45 -45 45 -7 0 -21 -7 -29 -16z"/>
<path d="M5943 2000 c-19 -8 -23 -17 -23 -55 0 -43 -1 -45 -30 -45 -25 0 -30
-4 -30 -25 0 -21 5 -25 29 -25 l29 0 4 -151 3 -151 33 -29 c32 -29 63 -35 110
-23 16 5 22 13 20 28 -2 16 -12 22 -42 27 -21 3 -42 12 -47 20 -5 8 -9 74 -9
147 l0 132 50 0 c47 0 50 2 50 25 0 23 -3 25 -50 25 l-50 0 0 55 c0 58 -4 62
-47 45z"/>
<path d="M2246 1910 c17 -42 13 -77 -8 -64 -19 12 -57 14 -63 3 -4 -5 -17 -9
-30 -9 -13 0 -27 -5 -30 -10 -4 -7 24 -10 84 -9 l90 2 -6 31 c-7 40 -33 96
-44 96 -5 0 -2 -18 7 -40z"/>
<path d="M3713 1890 c-17 -10 -39 -32 -47 -47 l-15 -28 -1 43 c0 40 -1 42 -30
42 l-30 0 0 -200 0 -200 35 0 35 0 0 119 c0 66 5 132 11 148 17 46 49 73 86
73 31 0 33 2 33 35 0 30 -3 35 -22 35 -13 0 -37 -9 -55 -20z"/>
<path d="M4067 1896 c-48 -18 -74 -41 -98 -88 -29 -56 -34 -116 -15 -180 47
-162 263 -186 346 -38 20 37 25 58 24 115 -1 100 -35 155 -116 190 -45 18 -90
19 -141 1z m150 -80 c92 -99 19 -296 -100 -271 -99 21 -141 181 -70 266 51 60
117 63 170 5z"/>
<path d="M4944 1891 c-122 -56 -153 -245 -55 -342 44 -45 105 -64 178 -55 71
8 83 14 83 43 0 21 -4 24 -22 20 -75 -19 -106 -19 -152 2 -47 21 -76 62 -76
111 0 19 6 20 141 20 l142 0 -6 49 c-16 137 -119 204 -233 152z m115 -45 c28
-15 51 -53 51 -86 0 -19 -8 -20 -105 -20 -70 0 -105 4 -105 11 0 26 35 81 59
94 34 18 65 19 100 1z"/>
<path d="M5505 1895 c-51 -18 -110 -81 -124 -131 -44 -159 64 -289 224 -269
63 7 76 15 69 42 -5 19 -11 20 -68 16 -47 -4 -71 -1 -95 11 -38 20 -71 83 -71
136 0 53 33 116 71 136 25 12 48 15 96 11 35 -2 63 -1 63 3 0 5 3 15 6 23 4
11 -5 19 -33 26 -50 14 -89 13 -138 -4z"/>
<path d="M2030 1895 c0 -2 5 -16 12 -30 10 -23 9 -29 -16 -51 -27 -26 -31 -54
-8 -62 7 -2 10 2 6 12 -9 23 5 39 22 25 11 -9 14 -7 14 9 0 12 13 28 35 41 19
11 35 25 35 31 0 13 -33 13 -47 -1 -8 -8 -15 -6 -25 10 -11 19 -28 28 -28 16z"/>
<path d="M4550 1688 c0 -245 -7 -274 -70 -294 -29 -10 -34 -16 -32 -35 2 -13
5 -25 7 -27 6 -6 81 18 103 33 52 37 57 63 60 308 l4 227 -36 0 -36 0 0 -212z"/>
<path d="M6950 925 l0 -335 40 0 40 0 0 335 0 335 -40 0 -40 0 0 -335z"/>
<path d="M5690 905 l0 -315 181 0 180 0 -3 33 -3 32 -137 3 -138 3 0 114 0
115 126 0 125 0 -3 33 -3 32 -122 3 -123 3 0 94 0 95 130 0 130 0 0 35 0 35
-170 0 -170 0 0 -315z"/>
<path d="M7438 1040 c-84 -25 -142 -102 -154 -201 -16 -140 67 -245 204 -256
67 -5 156 15 159 37 6 33 -11 41 -64 29 -62 -15 -133 -5 -169 23 -28 23 -54
74 -54 108 0 19 6 20 160 20 l160 0 0 33 c0 147 -115 245 -242 207z m122 -77
c20 -18 33 -41 37 -65 l6 -38 -122 0 c-68 0 -121 4 -121 9 0 24 23 66 51 92
43 40 106 41 149 2z"/>
<path d="M8070 1032 c-19 -9 -45 -32 -57 -51 l-23 -34 0 47 c0 46 0 46 -35 46
l-35 0 0 -225 0 -225 40 0 40 0 0 140 c0 152 10 195 51 224 13 9 38 16 56 16
32 0 33 1 33 40 0 46 -14 51 -70 22z"/>
<path d="M6290 884 c0 -179 9 -223 57 -264 61 -54 149 -49 218 11 l35 31 0
-36 c0 -34 1 -36 35 -36 l35 0 0 225 0 225 -40 0 -40 0 0 -150 c0 -168 -8
-198 -60 -225 -34 -18 -83 -19 -112 -4 -38 20 -48 68 -48 229 l0 150 -40 0
-40 0 0 -156z"/>
<path d="M2181 608 c-7 -24 -19 -58 -27 -76 -8 -18 -19 -66 -25 -105 -11 -77
-35 -195 -46 -224 -4 -12 -3 -15 5 -8 5 6 24 50 41 100 19 57 40 98 56 112 22
19 25 28 19 58 -5 31 -9 35 -28 29 -18 -6 -19 -5 -8 8 6 8 16 37 21 64 5 27
13 57 16 67 4 9 3 17 -2 17 -6 0 -15 -19 -22 -42z"/>
<path d="M2254 615 c10 -41 60 -155 67 -155 7 0 -17 81 -32 112 -5 10 -9 24
-9 32 0 7 -7 20 -17 27 -15 13 -16 11 -9 -16z"/>
<path d="M1600 581 c0 -11 9 -23 21 -26 26 -9 33 -2 24 24 -8 27 -45 28 -45 2z"/>
<path d="M1624 503 c2 -10 8 -33 11 -51 10 -49 18 -31 10 22 -4 25 -12 46 -17
46 -5 0 -7 -8 -4 -17z"/>
<path d="M1820 411 c0 -5 7 -12 16 -15 24 -9 28 -7 14 9 -14 17 -30 20 -30 6z"/>
<path d="M1712 363 c14 -16 29 -38 33 -50 9 -33 25 -28 25 6 0 16 3 37 6 46 6
15 4 15 -14 4 -18 -11 -24 -11 -40 4 -30 28 -38 19 -10 -10z"/>
</g>
</svg>
